<mxfile host="65bd71144e">
    <diagram id="_qsXQzF7cAFDwAtXrd3U" name="Maze Scenario 0">
        <mxGraphModel dx="502" dy="481" grid="1" gridSize="10" guides="1" tooltips="1" connect="1" arrows="1" fold="1" page="1" pageScale="1" pageWidth="583" pageHeight="413" background="#F1FAEE" math="0" shadow="0">
            <root>
                <mxCell id="0"/>
                <mxCell id="1" parent="0"/>
                <mxCell id="MrV22m-f6EYFQX71M691-5" value="" style="verticalLabelPosition=bottom;html=1;verticalAlign=top;align=center;shape=mxgraph.floorplan.wall;fillColor=#000000;direction=south;" parent="1" vertex="1">
                    <mxGeometry x="10" y="10" width="10" height="390" as="geometry"/>
                </mxCell>
                <mxCell id="MrV22m-f6EYFQX71M691-6" value="" style="verticalLabelPosition=bottom;html=1;verticalAlign=top;align=center;shape=mxgraph.floorplan.wall;fillColor=#000000;direction=south;" parent="1" vertex="1">
                    <mxGeometry x="560" y="110" width="10" height="290" as="geometry"/>
                </mxCell>
                <mxCell id="MrV22m-f6EYFQX71M691-7" value="" style="verticalLabelPosition=bottom;html=1;verticalAlign=top;align=center;shape=mxgraph.floorplan.wall;fillColor=#000000;direction=south;" parent="1" vertex="1">
                    <mxGeometry x="560" y="10" width="10" height="100" as="geometry"/>
                </mxCell>
                <mxCell id="MrV22m-f6EYFQX71M691-8" value="" style="verticalLabelPosition=bottom;html=1;verticalAlign=top;align=center;shape=mxgraph.floorplan.wallU;fillColor=#000000;rotation=90;" parent="1" vertex="1">
                    <mxGeometry x="60" y="60" width="60" height="60" as="geometry"/>
                </mxCell>
                <mxCell id="MrV22m-f6EYFQX71M691-9" value="" style="verticalLabelPosition=bottom;html=1;verticalAlign=top;align=center;shape=mxgraph.floorplan.wall;fillColor=#000000;" parent="1" vertex="1">
                    <mxGeometry x="20" y="110" width="40" height="10" as="geometry"/>
                </mxCell>
                <mxCell id="MrV22m-f6EYFQX71M691-10" value="" style="verticalLabelPosition=bottom;html=1;verticalAlign=top;align=center;shape=mxgraph.floorplan.wall;fillColor=#000000;direction=south;" parent="1" vertex="1">
                    <mxGeometry x="55" y="160" width="10" height="190" as="geometry"/>
                </mxCell>
                <mxCell id="MrV22m-f6EYFQX71M691-11" value="" style="verticalLabelPosition=bottom;html=1;verticalAlign=top;align=center;shape=mxgraph.floorplan.wall;fillColor=#000000;" parent="1" vertex="1">
                    <mxGeometry x="65" y="160" width="165" height="10" as="geometry"/>
                </mxCell>
                <mxCell id="MrV22m-f6EYFQX71M691-12" value="" style="verticalLabelPosition=bottom;html=1;verticalAlign=top;align=center;shape=mxgraph.floorplan.wall;fillColor=#000000;direction=south;" parent="1" vertex="1">
                    <mxGeometry x="165" y="70" width="10" height="90" as="geometry"/>
                </mxCell>
                <mxCell id="MrV22m-f6EYFQX71M691-13" value="" style="verticalLabelPosition=bottom;html=1;verticalAlign=top;align=center;shape=mxgraph.floorplan.wall;fillColor=#000000;" parent="1" vertex="1">
                    <mxGeometry x="165" y="60" width="345" height="10" as="geometry"/>
                </mxCell>
                <mxCell id="MrV22m-f6EYFQX71M691-15" value="" style="verticalLabelPosition=bottom;html=1;verticalAlign=top;align=center;shape=mxgraph.floorplan.wall;fillColor=#000000;direction=south;" parent="1" vertex="1">
                    <mxGeometry x="510" y="10" width="10" height="60" as="geometry"/>
                </mxCell>
                <mxCell id="MrV22m-f6EYFQX71M691-16" value="" style="verticalLabelPosition=bottom;html=1;verticalAlign=top;align=center;shape=mxgraph.floorplan.wall;fillColor=#000000;" parent="1" vertex="1">
                    <mxGeometry x="20" y="10" width="490" height="10" as="geometry"/>
                </mxCell>
                <mxCell id="MrV22m-f6EYFQX71M691-17" value="" style="verticalLabelPosition=bottom;html=1;verticalAlign=top;align=center;shape=mxgraph.floorplan.wall;fillColor=#000000;direction=south;" parent="1" vertex="1">
                    <mxGeometry x="100" y="220" width="10" height="130" as="geometry"/>
                </mxCell>
                <mxCell id="MrV22m-f6EYFQX71M691-20" value="" style="verticalLabelPosition=bottom;html=1;verticalAlign=top;align=center;shape=mxgraph.floorplan.wallU;fillColor=#000000;rotation=90;" parent="1" vertex="1">
                    <mxGeometry x="187.5" y="135" width="109" height="60" as="geometry"/>
                </mxCell>
                <mxCell id="MrV22m-f6EYFQX71M691-21" value="" style="verticalLabelPosition=bottom;html=1;verticalAlign=top;align=center;shape=mxgraph.floorplan.wall;fillColor=#000000;" parent="1" vertex="1">
                    <mxGeometry x="100" y="210" width="120" height="10" as="geometry"/>
                </mxCell>
                <mxCell id="MrV22m-f6EYFQX71M691-22" value="" style="verticalLabelPosition=bottom;html=1;verticalAlign=top;align=center;shape=mxgraph.floorplan.wall;fillColor=#000000;" parent="1" vertex="1">
                    <mxGeometry x="270" y="110" width="290" height="10" as="geometry"/>
                </mxCell>
                <mxCell id="MrV22m-f6EYFQX71M691-23" value="" style="verticalLabelPosition=bottom;html=1;verticalAlign=top;align=center;shape=mxgraph.floorplan.wall;fillColor=#000000;" parent="1" vertex="1">
                    <mxGeometry x="200" y="390" width="360" height="10" as="geometry"/>
                </mxCell>
                <mxCell id="MrV22m-f6EYFQX71M691-24" value="" style="verticalLabelPosition=bottom;html=1;verticalAlign=top;align=center;shape=mxgraph.floorplan.wall;fillColor=#000000;" parent="1" vertex="1">
                    <mxGeometry x="20" y="390" width="140" height="10" as="geometry"/>
                </mxCell>
                <mxCell id="MrV22m-f6EYFQX71M691-25" value="" style="verticalLabelPosition=bottom;html=1;verticalAlign=top;align=center;shape=mxgraph.floorplan.wall;fillColor=#000000;direction=south;" parent="1" vertex="1">
                    <mxGeometry x="150" y="350" width="10" height="40" as="geometry"/>
                </mxCell>
                <mxCell id="MrV22m-f6EYFQX71M691-26" value="" style="verticalLabelPosition=bottom;html=1;verticalAlign=top;align=center;shape=mxgraph.floorplan.wall;fillColor=#000000;" parent="1" vertex="1">
                    <mxGeometry x="150" y="340" width="270" height="10" as="geometry"/>
                </mxCell>
                <mxCell id="MrV22m-f6EYFQX71M691-27" value="" style="verticalLabelPosition=bottom;html=1;verticalAlign=top;align=center;shape=mxgraph.floorplan.wall;fillColor=#000000;" parent="1" vertex="1">
                    <mxGeometry x="110" y="295" width="360" height="10" as="geometry"/>
                </mxCell>
                <mxCell id="MrV22m-f6EYFQX71M691-28" value="" style="verticalLabelPosition=bottom;html=1;verticalAlign=top;align=center;shape=mxgraph.floorplan.wall;fillColor=#000000;" parent="1" vertex="1">
                    <mxGeometry x="150" y="250" width="290" height="10" as="geometry"/>
                </mxCell>
                <mxCell id="MrV22m-f6EYFQX71M691-29" value="" style="verticalLabelPosition=bottom;html=1;verticalAlign=top;align=center;shape=mxgraph.floorplan.wall;fillColor=#000000;direction=south;" parent="1" vertex="1">
                    <mxGeometry x="310" y="170" width="10" height="80" as="geometry"/>
                </mxCell>
                <mxCell id="MrV22m-f6EYFQX71M691-30" value="" style="verticalLabelPosition=bottom;html=1;verticalAlign=top;align=center;shape=mxgraph.floorplan.wall;fillColor=#000000;" parent="1" vertex="1">
                    <mxGeometry x="310" y="160" width="210" height="10" as="geometry"/>
                </mxCell>
                <mxCell id="MrV22m-f6EYFQX71M691-31" value="" style="verticalLabelPosition=bottom;html=1;verticalAlign=top;align=center;shape=mxgraph.floorplan.wall;fillColor=#000000;" parent="1" vertex="1">
                    <mxGeometry x="360" y="205" width="200" height="10" as="geometry"/>
                </mxCell>
                <mxCell id="MrV22m-f6EYFQX71M691-32" value="" style="verticalLabelPosition=bottom;html=1;verticalAlign=top;align=center;shape=mxgraph.floorplan.wallU;fillColor=#000000;rotation=90;" parent="1" vertex="1">
                    <mxGeometry x="420" y="250" width="100" height="100" as="geometry"/>
                </mxCell>
                <object label="" type="POI" tag="exit" id="MrV22m-f6EYFQX71M691-37">
                    <mxCell style="whiteSpace=wrap;html=1;aspect=fixed;fillColor=#e51400;fontColor=#ffffff;strokeColor=#B20000;" parent="1" vertex="1">
                        <mxGeometry x="176" y="396" width="10" height="10" as="geometry"/>
                    </mxCell>
                </object>
                <object label="" type="map-path" id="MrV22m-f6EYFQX71M691-38">
                    <mxCell style="endArrow=classic;html=1;rounded=1;strokeWidth=1;entryX=0.5;entryY=0;entryDx=0;entryDy=0;strokeColor=#000000;exitX=0.5;exitY=1;exitDx=0;exitDy=0;" parent="1" edge="1">
                        <mxGeometry width="50" height="50" relative="1" as="geometry">
                            <mxPoint x="540" y="36" as="sourcePoint"/>
                            <mxPoint x="180" y="393" as="targetPoint"/>
                            <Array as="points">
                                <mxPoint x="540" y="91"/>
                                <mxPoint x="200" y="91"/>
                                <mxPoint x="200" y="141"/>
                                <mxPoint x="250" y="141"/>
                                <mxPoint x="250" y="191"/>
                                <mxPoint x="80" y="191"/>
                                <mxPoint x="80" y="371"/>
                                <mxPoint x="130" y="371"/>
                                <mxPoint x="130" y="321"/>
                                <mxPoint x="490" y="321"/>
                                <mxPoint x="490" y="276"/>
                                <mxPoint x="130" y="276"/>
                                <mxPoint x="130" y="231"/>
                                <mxPoint x="290" y="231"/>
                                <mxPoint x="290" y="136"/>
                                <mxPoint x="540" y="136"/>
                                <mxPoint x="540" y="186"/>
                                <mxPoint x="340" y="186"/>
                                <mxPoint x="340" y="226"/>
                                <mxPoint x="540" y="226"/>
                                <mxPoint x="540" y="371"/>
                                <mxPoint x="180" y="371"/>
                            </Array>
                        </mxGeometry>
                    </mxCell>
                </object>
            </root>
        </mxGraphModel>
    </diagram>
</mxfile>